<svg id="Assets" xmlns="http://www.w3.org/2000/svg" viewBox="0 0 24 24" width="24" height="24"><path d="M8.924 7.059c0.007 0 0.004 0 0 0m-2.713 -1.356c0.007 0 0.004 0 0 0m16.229 2.094c-0.49 -1.178 -1.481 -2.449 -2.26 -2.851 0.634 1.242 1.001 2.489 1.141 3.419 0 0.002 0.001 0.006 0.002 0.019 -1.274 -3.175 -3.434 -4.455 -5.198 -7.243 -0.089 -0.141 -0.178 -0.282 -0.265 -0.431a3.422 3.422 0 0 1 -0.124 -0.233 2.053 2.053 0 0 1 -0.168 -0.445 0.029 0.029 0 0 0 -0.026 -0.03 0.038 0.038 0 0 0 -0.021 0c-0.002 0.001 -0.004 0.002 -0.006 0.003 -0.002 0.001 -0.006 0.003 -0.008 0.004 0.001 -0.002 0.004 -0.005 0.005 -0.006 -2.505 1.467 -3.543 4.036 -3.81 5.67a6.005 6.005 0 0 0 -2.232 0.57 0.288 0.288 0 0 0 -0.143 0.358 0.283 0.283 0 0 0 0.384 0.165 5.447 5.447 0 0 1 1.944 -0.507c0.022 -0.002 0.044 -0.003 0.066 -0.005a5.531 5.531 0 0 1 0.278 -0.01 5.662 5.662 0 0 1 1.617 0.224c0.031 0.009 0.061 0.019 0.091 0.029a5.625 5.625 0 0 1 0.26 0.086 5.719 5.719 0 0 1 0.187 0.073c0.05 0.02 0.101 0.041 0.15 0.062a5.578 5.578 0 0 1 0.23 0.108c0.035 0.017 0.07 0.034 0.104 0.052a5.672 5.672 0 0 1 0.219 0.121 5.063 5.063 0 0 1 0.138 0.083 5.766 5.766 0 0 1 1.97 2.038c-0.602 -0.423 -1.679 -0.84 -2.716 -0.659 4.052 2.026 2.964 9.001 -2.651 8.738a5.002 5.002 0 0 1 -1.466 -0.283 6.234 6.234 0 0 1 -0.331 -0.135c-0.064 -0.029 -0.127 -0.058 -0.19 -0.091 -1.376 -0.711 -2.512 -2.055 -2.654 -3.686 0 0 0.52 -1.938 3.723 -1.938 0.346 0 1.336 -0.966 1.355 -1.247 -0.004 -0.092 -1.965 -0.871 -2.729 -1.624 -0.408 -0.402 -0.602 -0.596 -0.774 -0.742a3.375 3.375 0 0 0 -0.292 -0.22 5.219 5.219 0 0 1 -0.032 -2.753c-1.157 0.527 -2.057 1.36 -2.712 2.095h-0.005c-0.447 -0.566 -0.415 -2.432 -0.39 -2.821 -0.005 -0.024 -0.333 0.17 -0.376 0.199a8.203 8.203 0 0 0 -1.101 0.943 9.867 9.867 0 0 0 -1.052 1.262c0 0.001 0 0.001 -0.001 0.002 0 -0.001 0 -0.001 0.001 -0.002a9.506 9.506 0 0 0 -1.511 3.413c-0.003 0.012 -0.107 0.471 -0.184 1.038a12.469 12.469 0 0 0 -0.036 0.265c-0.026 0.17 -0.046 0.356 -0.067 0.645 -0.001 0.011 -0.001 0.022 -0.002 0.033a27.703 27.703 0 0 0 -0.023 0.375c0 0.019 -0.001 0.038 -0.001 0.058 0 6.221 5.044 11.264 11.265 11.264 5.572 0 10.198 -4.045 11.104 -9.358 0.019 -0.144 0.034 -0.289 0.051 -0.435 0.224 -1.932 -0.025 -3.962 -0.731 -5.66m-7.691 3.38" fill="context-fill" fill-opacity="context-fill-opacity"/></svg>