<svg version="1.0" xmlns="http://www.w3.org/2000/svg" width="32.000000ptpx" height="32.000000ptpx" viewBox="0 0 32.000000 32.000000" preserveAspectRatio="xMidYMid meet">

<g transform="translate(0.000000,32.000000) scale(0.100000,-0.100000)" fill="#999fa5">
<path d="M95 306 c-101 -44 -125 -178 -46 -257 65 -65 157 -65 222 0 124 124&#xA;-15 327 -176 257z m158 -66 c34 -40 41 -80 23 -124 -14 -34 -17 -35 -40 -25&#xA;-16 7 -26 21 -28 38 -3 24 -7 26 -55 29 -38 2 -53 7 -53 18 0 7 9 14 20 14 15&#xA;0 20 7 20 25 0 20 5 25 24 25 13 0 29 7 36 15 17 21 25 19 53 -15z m-176 -92&#xA;c18 -18 33 -40 33 -50 0 -10 7 -21 15 -24 19 -8 20 -34 1 -34 -36 0 -96 78&#xA;-96 125 0 22 10 19 47 -17z"/>
</g>
</svg>